<svg version="1.0" xmlns="http://www.w3.org/2000/svg" width="760" height="414.667" viewBox="0 0 570 311"><path d="M104 26.5V49h-3.5c-4.9 0-15 3.5-20.1 7C68.5 64.3 62 80.7 65 94.9l1.2 6-5.5 5.3c-9.5 9.3-16.1 26.2-16.1 41.3 0 7 .6 9.4 4.3 18.9 7 18.2 8.5 25.7 8.6 44.1 0 15.5-.1 16.2-2.8 21.6-5 10.3-15.4 17.3-38.4 25.9-5.1 1.9-9.3 4-9.3 4.5 0 1.9 8.3 6.5 16.5 9.2 6.2 2.1 10.1 2.7 17.5 2.7 10 .1 13.6-1 18.7-5.7l2.2-2-.9 3.4c-3.1 10.8-12.4 22.6-21.2 26.8-2.7 1.3-4.8 2.9-4.8 3.7 0 2 9.9 4.6 20.5 5.4 18 1.3 35.9-1.9 44.3-8l4.2-3h462V4H104v22.5zm433.9 6.2c0 .5-7.4 6.5-16.4 13.5L505.1 59H165.3l-16.7-13.1c-9.1-7.1-16.6-13.2-16.6-13.5 0-.2 91.3-.4 203-.4s203 .3 202.9.7zm-328 97l25.2 19.8-38.7.3-38.7.2.6 6.8c1.4 14.6 13.3 30.9 28.4 39 18.1 9.6 43.3 9.6 61.6 0 3.7-1.9 9.4-6.4 14-11l7.9-7.7 32.5 25.5c22.4 17.7 32.8 25.2 33.6 24.6.7-.5 15.3-12 32.6-25.6l31.5-24.7 2.5 3.3c6.6 8.6 17.9 16.3 29.1 19.9 9.1 3 26.1 3.7 35.5 1.5 11.7-2.8 21.1-7.9 29-16 3.9-3.9 8.2-9.4 9.7-12.2 3.1-5.7 5.8-15.2 5.8-20.1V150l-38.4-.2-38.3-.3 25.1-19.7 25.1-19.8H538v157H132v-77.8c0-42.8.3-78.2.7-78.5.3-.4 12.2-.7 26.3-.7h25.7l25.2 19.7zM439 110.5c0 .6-101.8 80.5-103.3 81.1-1.2.4-102.9-78.8-103.5-80.7-.2-.5 40.1-.9 103.2-.9 57 0 103.6.2 103.6.5z"/></svg>